<svg xmlns="http://www.w3.org/2000/svg" viewBox="0 0 1081.7 339.1" style="fill: #666666">
    <path d="M813.52,219.92h-109V180.31h0l14,14v11.65h86.06l10.54-22.78H725l-29.19-63.28H813.32l4.33,9.39-6.83,18.55h0l0-.09a23.4,23.4,0,0,0-21.15-13.59l-72-.27L734,169.18H837Z"/>
    <path d="M626,159.58V150H612v9.54a3,3,0,0,1-3,3h-9.54v14H609a3,3,0,0,1,3,3v9.54h14v-9.54a3,3,0,0,1,3-3l42.52-.05,14-14-16.48.05H629A3,3,0,0,1,626,159.58Z"/>
    <path d="M1081.7,169.56l-.08.08-16.68,6.91h-28.76l-3,3v9.19h-14v-9.19l-3-3H858.9l-29.73,66.92h-41l-14-14,20.06.05,25.87,0,26.66-60-27.29-59.11-25.24,0-20.06,0,14-14h40.2l1.07,2.32L859,162.57H1016.2l3-3v-9.9h14v9.9l3,3h28.75l16.7,6.92Z"/><g id="E">
    <path d="M338.25,220l0-14,109.41-.13V194.58l14-14h0V220Z"/>
    <path d="M458.15,128.87l-6.8,18.54a23.37,23.37,0,0,0-21.25-13.59l-68.34.06v28.69h86l-15.49,14H361.76v5.54l-14,14.32V176.55h-25.2v-14h25.21V133.89h-9.52l0-14L454,120Z"/>
    <path d="M332.28,229.65v14H299.11v-14h9.53l0-53.1H236.48V273.6l3,3H249v14h-9.54l-3,3v28.75L229.56,339l-.07.08-.08-.08c-2.4-5.78-4.52-10.91-6.91-16.69V293.58c-1.18-1.17-1.83-1.83-3-3H210v-14h9.54c1.17-1.17,1.82-1.83,3-3V176.55H65.5l-3,3v9.9h-14v-9.9l-3-3H16.77L.07,169.64,0,169.56l.08-.08,16.68-6.91H45.52l3-3v-9.19h14v9.19l3,3h157V65.49c-1.17-1.17-1.83-1.82-3-3H210v-14h9.54c1.17-1.17,1.83-1.82,3-3V16.87l7-16.87,7,16.87V45.51l3,3H249v14h-9.54c-1.17,1.18-1.83,1.83-3,3v97.08h72.11l0-47,5.34-5H299v-14h33.17v14h-9.65l0,52v14l0,48.34-5.12,4.76Z"/></g>
    <path d="M680.69,194v12l-92.47,0,6.45-6.45V133.9H678l6.28,13.6L697,141.64l-10-21.72H571.16v14h15.47l-5.94,5.94V206H558.36l-13.69-29.45h26.14l-26.33-56.61H462l9.16,19.84V220h25.38l14-14H485.25l-.12-29.55,44.13,0,20.19,43.43L695,220,694.67,180ZM485.13,162.53V139.72a14,14,0,0,0-1.29-5.87h51.72l13.34,28.66Z"/>
</svg>